<?xml version="1.0" encoding="UTF-8"?>
<!DOCTYPE svg PUBLIC "-//W3C//DTD SVG 1.1//EN" "http://www.w3.org/Graphics/SVG/1.1/DTD/svg11.dtd">
<!-- Creator: CorelDRAW 2017 -->
<svg xmlns="http://www.w3.org/2000/svg" xml:space="preserve" width="400px" height="400px" version="1.1" style="shape-rendering:geometricPrecision; text-rendering:geometricPrecision; image-rendering:optimizeQuality; fill-rule:evenodd; clip-rule:evenodd"
viewBox="0 0 21000 21000"
 xmlns:xlink="http://www.w3.org/1999/xlink">
 <defs>
  <style type="text/css">
   <![CDATA[
    .fil2 {fill:#ffffff}
    .fil0 {fill:#ffffff}
    .fil1 {fill:#ffffff;fill-rule:nonzero}
   ]]>
  </style>
 </defs>
 <g id="Layer_x0020_1">
  <metadata id="CorelCorpID_0Corel-Layer"/>
  <g id="_2056386158016">
   <g>
    <path class="fil0" d="M8541.14 9172.45l-398.08 1111.62 -0.55 0 -395.58 -1111.62 -530.29 0 665.79 1732.54 523.21 0 628.48 -1635.46 0 -97.08 -492.98 0zm494.01 105.04l44.33 -115.36 0 0 -44.33 0 0 115.36zm0 0l-629.39 1637.82 -523.45 0 -673.72 -1753.18 538.48 0 395.72 1112.02 398.22 -1112.02 494.14 0 0 0 44.33 0 1222.97 0 0 405.74 -788.93 0 0 267.98 711.29 0 0 405.74 -711.29 0 0 267.98 831.51 0 0 405.74 -1309.88 0 0 -1637.82zm6400.35 1637.82l39.32 0 0 -104.26 -39.32 104.26zm0 0l-439.04 0 0 -1753.18 478.36 0 0 1648.92 621.88 -1648.92 513.43 0 663.7 1753.18 -533.46 0 -107.7 -310.56 -556.01 0 -107.69 310.56 -494.15 0 -39.32 0zm-4112.95 -390.71c-300.54,0 -528.46,-215.39 -528.46,-485.88 0,-272.99 227.92,-485.88 528.46,-485.88 130.24,0 250.45,42.58 358.15,122.72l235.43 -333.1c-175.32,-137.75 -368.17,-220.4 -593.58,-220.4 -568.53,0 -996.81,410.74 -996.81,916.66 0,505.92 428.28,914.16 996.81,914.16 225.41,0 418.26,-82.65 593.58,-217.9l-235.43 -335.61c-107.7,77.65 -227.91,125.23 -358.15,125.23zm1395.78 0c-300.54,0 -528.46,-215.39 -528.46,-485.88 0,-272.99 227.92,-485.88 528.46,-485.88 130.24,0 250.45,42.58 358.15,122.72l235.43 -333.1c-175.32,-137.75 -368.17,-220.4 -593.58,-220.4 -568.53,0 -996.81,410.74 -996.81,916.66 0,505.92 428.28,914.16 996.81,914.16 225.41,0 418.26,-82.65 593.58,-217.9l-235.43 -335.61c-107.7,77.65 -227.91,125.23 -358.15,125.23zm1666.27 -1362.47l0 673.72 -588.57 0 0 -673.72 -478.37 0 0 1753.18 478.37 0 0 -673.72 588.57 0 0 673.72 478.36 0 0 -1753.18 -478.36 0zm1834.82 1036.88l135.25 -385.7 135.24 385.7 -270.49 0zm-7139.82 -1026.56l-43.42 112.99 0 1619.55 1307.82 0 0 -385.1 -830.48 0 -1.03 -10.32 0 -267.98 1.03 -10.32 710.26 0 0 -385.1 -710.26 0 -1.03 -10.32 0 -267.98 1.03 -10.32 787.9 0 0 -385.1 -1221.82 0zm2242.95 1362.47c-149.47,0 -281.02,-53.31 -375.51,-140.19 -96.02,-88.29 -153.98,-213.83 -153.98,-356.01 0,-143.13 57.69,-268.41 153.33,-356.35 94.53,-86.91 226.35,-139.85 376.16,-139.85 64.53,0 126.7,10.5 186.14,30.86 60.31,20.67 117.76,51.49 171.98,91.83l226.01 -319.77c-84.86,-65.49 -173.86,-118.06 -268.6,-154.56 -98.22,-37.85 -202.78,-58.5 -315.53,-58.5 -281.93,0 -529.34,100.99 -707.11,264.46 -180.18,165.68 -288.67,393.05 -288.67,641.88 0,248.65 108.34,475.25 288.3,640.28 177.8,163.05 425.36,263.56 707.48,263.56 112.75,0 217.31,-20.65 315.53,-58.19 94.75,-36.21 183.73,-88.17 268.57,-152.49l-225.99 -322.15c-55.53,40.02 -114.43,72.07 -176.36,93.72 -58.11,20.31 -118.81,31.47 -181.75,31.47zm1395.78 0c-149.47,0 -281.02,-53.31 -375.51,-140.19 -96.02,-88.29 -153.98,-213.83 -153.98,-356.01 0,-143.13 57.69,-268.41 153.33,-356.35 94.53,-86.91 226.35,-139.85 376.16,-139.85 64.53,0 126.7,10.5 186.14,30.86 60.31,20.67 117.76,51.49 171.98,91.83l226.01 -319.77c-84.86,-65.49 -173.86,-118.06 -268.6,-154.56 -98.22,-37.85 -202.78,-58.5 -315.53,-58.5 -281.93,0 -529.34,100.99 -707.11,264.46 -180.18,165.68 -288.67,393.05 -288.67,641.88 0,248.65 108.34,475.25 288.3,640.28 177.8,163.05 425.36,263.56 707.48,263.56 112.75,0 217.31,-20.65 315.53,-58.19 94.75,-36.21 183.73,-88.17 268.57,-152.49l-225.99 -322.15c-55.53,40.02 -114.43,72.07 -176.36,93.72 -58.11,20.31 -118.81,31.47 -181.75,31.47zm1667.3 -1362.47l0 663.4 -1.03 10.32 -588.57 0 -1.03 -10.32 0 -663.4 -476.31 0 0 1732.54 476.31 0 0 -663.4 1.03 -10.32 588.57 0 1.03 10.32 0 663.4 476.3 0 0 -1732.54 -476.3 0zm611.86 0l0 1732.54 437.89 0 38.41 -101.86 0 -1630.68 -476.3 0zm478.36 1646.52l0 86.02 492.99 0 107.54 -310.12 0.28 -0.44 556.01 0 0.28 0.44 107.55 310.12 525.39 0 -655.88 -1732.54 -513.19 0 -620.97 1646.52zm743.29 -629.88l135.25 -385.7 0.56 0 135.24 385.7 -0.28 20.24 -270.49 0 -0.28 -20.24z"/>
    <path id="1" class="fil1" d="M8541.01 9162.13l-398.22 1112.02 -395.72 -1112.02 -538.48 0 673.72 1753.18 523.45 0 673.72 -1753.18 -538.47 0zm972.51 1347.44l0 -267.98 711.29 0 0 -405.74 -711.29 0 0 -267.98 788.93 0 0 -405.74 -1267.3 0 0 1753.18 1309.88 0 0 -405.74 -831.51 0zm1809.03 15.03c-300.54,0 -528.46,-215.39 -528.46,-485.88 0,-272.99 227.92,-485.88 528.46,-485.88 130.24,0 250.45,42.58 358.15,122.72l235.43 -333.1c-175.32,-137.75 -368.17,-220.4 -593.58,-220.4 -568.53,0 -996.81,410.74 -996.81,916.66 0,505.92 428.28,914.16 996.81,914.16 225.41,0 418.26,-82.65 593.58,-217.9l-235.43 -335.61c-107.7,77.65 -227.91,125.23 -358.15,125.23zm1395.78 0c-300.54,0 -528.46,-215.39 -528.46,-485.88 0,-272.99 227.92,-485.88 528.46,-485.88 130.24,0 250.45,42.58 358.15,122.72l235.43 -333.1c-175.32,-137.75 -368.17,-220.4 -593.58,-220.4 -568.53,0 -996.81,410.74 -996.81,916.66 0,505.92 428.28,914.16 996.81,914.16 225.41,0 418.26,-82.65 593.58,-217.9l-235.43 -335.61c-107.7,77.65 -227.91,125.23 -358.15,125.23zm1666.27 -1362.47l0 673.72 -588.57 0 0 -673.72 -478.37 0 0 1753.18 478.37 0 0 -673.72 588.57 0 0 673.72 478.36 0 0 -1753.18 -478.36 0zm611.86 0l0 1753.18 478.36 0 0 -1753.18 -478.36 0zm1743.91 1753.18l533.46 0 -663.7 -1753.18 -513.43 0 -661.2 1753.18 533.47 0 107.69 -310.56 556.01 0 107.7 310.56zm-520.95 -716.3l135.25 -385.7 135.24 385.7 -270.49 0z"/>
   </g>
   <g>
    <path class="fil0" d="M7514.41 11587.29l413.26 0c-6.67,82.34 -40.88,151.37 -102.64,207.08 -61.76,55.71 -134.72,83.56 -218.89,83.56 -89.01,0 -165.76,-31.03 -230.24,-93.1 -64.49,-62.06 -96.73,-136.09 -96.73,-222.07 0,-87.19 31.64,-161.52 94.91,-222.97 63.28,-61.46 140.02,-92.19 230.24,-92.19 56.92,0 113.23,15.44 168.94,46.32 60.55,33.91 99.61,75.99 117.17,126.25l-69.03 0c-19.98,-35.12 -49.65,-63.58 -89.01,-85.38 -39.36,-21.8 -81.44,-32.7 -126.25,-32.7 -73.27,0 -135.94,25.58 -188.01,76.75 -52.07,51.17 -78.11,112.47 -78.11,183.92 0,72.06 26.34,133.52 79.02,184.38 52.68,50.86 115.95,76.29 189.83,76.29 56.31,0 107.93,-17.4 154.85,-52.22 46.93,-34.82 77.05,-77.96 90.38,-129.43l-339.69 0 0 -54.49zm736.59 279.74l0 -608.53 60.86 0 0 554.03 252.49 0 0 54.5 -313.35 0zm862.85 -619.43c88.4,0 164.24,30.88 227.52,92.64 63.27,61.76 94.91,135.94 94.91,222.52 0,86.59 -31.64,160.76 -94.91,222.53 -63.28,61.76 -138.81,92.64 -226.61,92.64 -89.62,0 -165.91,-31.03 -228.88,-93.1 -62.98,-62.06 -94.46,-137.3 -94.46,-225.7 0,-84.77 31.79,-157.89 95.36,-219.34 63.58,-61.46 139.27,-92.19 227.07,-92.19zm0 54.49c-70.84,0 -132.15,25.58 -183.92,76.75 -51.77,51.17 -77.66,111.87 -77.66,182.11 0,72.66 25.58,134.57 76.75,185.74 51.16,51.16 113.08,76.74 185.74,76.74 70.84,0 132,-25.58 183.47,-76.74 51.46,-51.17 77.2,-112.17 77.2,-183.02 0,-72.05 -25.58,-133.66 -76.75,-184.83 -51.16,-51.17 -112.78,-76.75 -184.83,-76.75zm652.12 564.94l0 -608.53 152.59 0c60.55,0 107.48,13.32 140.78,39.96 39.36,31.49 59.04,72.05 59.04,121.71 0,47.83 -22.4,88.7 -67.21,122.61 31.48,12.72 56.31,32.4 74.48,59.04 18.16,26.64 27.24,56.92 27.24,90.82 0,66 -28.46,115.05 -85.37,147.14 -31.49,18.17 -80.84,27.25 -148.05,27.25l-153.5 0zm60.86 -54.5l85.37 0c52.08,0 90.23,-5.45 114.45,-16.34 18.77,-8.48 34.36,-22.56 46.77,-42.24 12.41,-19.68 18.62,-40.11 18.62,-61.31 0,-22.4 -6.66,-43.29 -19.98,-62.67 -13.32,-19.37 -30.58,-33 -51.77,-40.87 -24.22,-9.08 -63.88,-13.62 -118.98,-13.62l-74.48 0 0 237.05zm0 -291.55l76.29 0c48.44,0 83.56,-6.05 105.36,-18.16 13.93,-7.87 25.58,-19.68 34.97,-35.42 9.38,-15.75 14.08,-32.1 14.08,-49.05 0,-32.7 -13.32,-59.04 -39.97,-79.02 -23.01,-17.56 -59.34,-26.34 -108.99,-26.34l-81.74 0 0 207.99zm577.65 346.05l260.67 -608.53 68.12 0 261.58 608.53 -66.3 0 -88.1 -205.27 -283.38 0 -89.01 205.27 -63.58 0zm175.3 -259.76l237.05 0 -117.16 -279.75 -119.89 279.75zm712.06 259.76l0 -608.53 60.86 0 0 554.03 252.49 0 0 54.5 -313.35 0zm799.26 -170.75l65.4 0c3.03,34.51 12.41,61.76 28.15,81.74 23.62,30.28 56.01,45.41 97.19,45.41 33.91,0 62.97,-11.96 87.19,-35.87 24.22,-23.92 36.33,-52.53 36.33,-85.83 0,-34.52 -13.92,-63.58 -41.78,-87.2 -18.77,-15.74 -50.26,-29.36 -94.46,-40.87 -55.1,-13.92 -93.55,-31.79 -115.35,-53.59 -28.45,-28.45 -42.68,-64.78 -42.68,-108.99 0,-46.62 16.34,-85.52 49.04,-116.71 32.7,-31.18 73.57,-46.77 122.62,-46.77 47.83,0 87.95,15.74 120.34,47.23 32.4,31.48 48.59,70.54 48.59,117.16l-63.58 0c-3.02,-32.7 -14.68,-59.19 -34.96,-79.47 -20.29,-20.29 -45.57,-30.43 -75.84,-30.43 -29.67,0 -54.65,10.3 -74.93,30.88 -20.29,20.59 -30.43,46.02 -30.43,76.3 0,29.67 9.69,52.98 29.06,69.93 14.54,12.11 44.81,24.83 90.83,38.15 55.1,15.74 92.94,32.09 113.53,49.05 40.57,33.9 60.86,78.11 60.86,132.6 0,49.05 -18.17,91.13 -54.5,126.25 -36.33,35.12 -80.23,52.68 -131.7,52.68 -53.89,0 -98.24,-16.8 -133.06,-50.41 -34.81,-33.6 -53.43,-77.35 -55.86,-131.24zm701.17 170.75l0 -608.53 333.34 0 0 54.49 -272.48 0 0 218.89 263.39 0 0 54.5 -263.39 0 0 226.15 272.48 0 0 54.5 -333.34 0zm670.29 0l0 -608.53 154.41 0c61.76,0 107.48,5.75 137.15,17.25 36.93,14.53 66.45,37.85 88.55,69.94 22.1,32.09 33.15,68.42 33.15,108.99 0,50.86 -16.95,93.7 -50.86,128.52 -33.91,34.82 -77.2,53.74 -129.88,56.76l171.66 227.07 -76.29 0 -206.18 -276.11 24.52 0c63.58,0 109,-7.27 136.24,-21.8 46.63,-24.83 69.94,-63.88 69.94,-117.16 0,-52.08 -22.1,-90.83 -66.3,-116.26 -26.04,-15.14 -65.7,-22.71 -118.99,-22.71l-106.26 0 0 554.04 -60.86 0zm911.89 0l-250.68 -608.53 67.21 0 214.35 532.24 215.26 -532.24 66.3 0 -252.49 608.53 -59.95 0zm603.99 0l0 -608.53 60.86 0 0 608.53 -60.86 0zm924.61 -159.85l68.12 0c-28.46,52.68 -67.82,94.3 -118.07,124.88 -50.26,30.58 -104.45,45.87 -162.58,45.87 -88.41,0 -163.64,-30.58 -225.71,-91.74 -62.06,-61.15 -93.09,-135.63 -93.09,-223.43 0,-87.8 30.73,-162.27 92.19,-223.43 61.45,-61.16 136.39,-91.73 224.79,-91.73 75.08,0 141.39,23.01 198.91,69.02 39.36,31.49 66.3,63.89 80.83,97.19l-68.12 0c-23,-34.52 -53.43,-61.76 -91.28,-81.75 -37.84,-19.98 -77.95,-29.97 -120.34,-29.97 -68.42,0 -128.22,26.04 -179.38,78.11 -51.17,52.08 -76.75,113.23 -76.75,183.47 0,69.03 25.73,129.58 77.2,181.65 51.47,52.08 111.11,78.11 178.93,78.11 55.71,0 106.57,-17.25 152.59,-51.77 21.19,-15.74 41.78,-37.24 61.76,-64.48zm385.09 159.85l0 -608.53 333.34 0 0 54.49 -272.48 0 0 218.89 263.39 0 0 54.5 -263.39 0 0 226.15 272.48 0 0 54.5 -333.34 0zm610.35 -170.75l65.4 0c3.03,34.51 12.41,61.76 28.15,81.74 23.62,30.28 56.01,45.41 97.19,45.41 33.91,0 62.97,-11.96 87.19,-35.87 24.22,-23.92 36.33,-52.53 36.33,-85.83 0,-34.52 -13.92,-63.58 -41.78,-87.2 -18.77,-15.74 -50.26,-29.36 -94.46,-40.87 -55.1,-13.92 -93.55,-31.79 -115.35,-53.59 -28.45,-28.45 -42.68,-64.78 -42.68,-108.99 0,-46.62 16.34,-85.52 49.04,-116.71 32.7,-31.18 73.57,-46.77 122.62,-46.77 47.83,0 87.95,15.74 120.34,47.23 32.4,31.48 48.59,70.54 48.59,117.16l-63.58 0c-3.02,-32.7 -14.68,-59.19 -34.96,-79.47 -20.29,-20.29 -45.57,-30.43 -75.84,-30.43 -29.67,0 -54.65,10.3 -74.93,30.88 -20.29,20.59 -30.43,46.02 -30.43,76.3 0,29.67 9.69,52.98 29.06,69.93 14.54,12.11 44.81,24.83 90.83,38.15 55.1,15.74 92.94,32.09 113.53,49.05 40.57,33.9 60.86,78.11 60.86,132.6 0,49.05 -18.17,91.13 -54.5,126.25 -36.33,35.12 -80.23,52.68 -131.7,52.68 -53.89,0 -98.24,-16.8 -133.06,-50.41 -34.81,-33.6 -53.43,-77.35 -55.86,-131.24zm-8972.88 -100.55l-410.36 0 0 37.61 338.85 0 0.3 16.29c-6.73,25.98 -17.66,49.81 -32.77,71.45 -15.08,21.6 -34.39,41.13 -57.85,58.54 -23.44,17.39 -48.09,30.45 -73.93,39.16 -25.85,8.72 -52.86,13.09 -80.98,13.09 -36.91,0 -71.23,-6.38 -102.9,-19.1 -31.63,-12.72 -60.66,-31.82 -87.01,-57.26 -53.18,-51.34 -79.78,-115.61 -79.78,-192.75 0,-40.16 6.74,-76.11 20.18,-107.77 13.04,-30.71 32.61,-58.89 58.69,-84.52 26.04,-25.59 54.78,-44.82 86.1,-57.6 31.38,-12.8 65.38,-19.22 101.99,-19.22 22.33,0 44.08,2.75 65.19,8.21 21.07,5.45 41.46,13.64 61.11,24.52 39.35,21.79 69.04,50.26 89.04,85.35l62.02 0c-8.65,-18.69 -20.53,-36.18 -35.62,-52.45 -19.5,-21.01 -44.42,-40 -74.67,-56.95 -55.66,-30.85 -111.97,-46.29 -168.89,-46.29 -45.14,0 -86.88,7.68 -125.19,23.02 -38.36,15.35 -73.36,38.4 -104.97,69.1 -31.59,30.68 -55.28,64.58 -71.07,101.67 -15.38,36.14 -23.08,73.8 -23.08,112.93 0,38.51 7.85,75.79 23.53,111.8 16.09,36.94 40.25,70.92 72.44,101.9 32.21,31 67.52,54.28 105.87,69.78 38.31,15.49 79.76,23.25 124.29,23.25 42.11,0 81.4,-6.96 117.82,-20.86 36.47,-13.91 70.15,-34.81 100.99,-62.63l0.01 0c30.84,-27.82 54.82,-58.98 71.89,-93.42 14.92,-30.12 24.51,-62.42 28.76,-96.85zm326.23 -328.79l0 591.65 311.67 0 0 -37.62 -251.65 0 -0.84 -8.44 0 -545.59 -59.18 0zm1089.45 81.67c-63.22,-61.7 -139.04,-92.57 -227.44,-92.57 -87.79,0 -163.46,30.71 -226.99,92.12 -31.74,30.68 -55.55,64.28 -71.41,100.77 -15.45,35.55 -23.19,72.3 -23.19,110.2 0,39.78 7.66,77.98 22.97,114.55 15.7,37.52 39.29,71.8 70.73,102.78 31.45,31.01 66.27,54.28 104.4,69.79 38.08,15.48 79.56,23.24 124.4,23.24 43.92,0 84.75,-7.72 122.47,-23.13 37.75,-15.43 72.45,-38.59 104.06,-69.44 31.57,-30.82 55.28,-64.78 71.07,-101.8 15.38,-36.06 23.08,-73.52 23.08,-112.36 0,-38.83 -7.7,-76.29 -23.08,-112.36 -15.79,-37.01 -39.49,-70.96 -71.07,-101.79zm-326.58 -35.74c30.69,-12.8 63.75,-19.22 99.14,-19.22 36,0 69.44,6.42 100.28,19.22 30.81,12.79 59.04,32.01 84.63,57.6 25.6,25.61 44.85,53.88 57.67,84.78 13.21,31.83 19.84,68 19.84,108.42 0,39.87 -6.66,75.58 -19.95,107.1 -12.89,30.55 -32.24,58.67 -58.01,84.29 -51.51,51.2 -112.71,76.81 -183.55,76.81 -36.3,0 -69.98,-6.42 -100.96,-19.22 -30.97,-12.79 -59.27,-32 -84.86,-57.59 -25.63,-25.62 -44.86,-53.97 -57.68,-85 -13.22,-31.99 -19.83,-68.37 -19.83,-109.11 0,-39.56 6.69,-75.05 20.07,-106.42 12.96,-30.4 32.42,-58.43 58.35,-84.06 25.9,-25.6 54.21,-44.82 84.86,-57.6zm752.1 -45.93l0 591.65 152.66 0c33.7,0 62.86,-2.27 87.41,-6.78 24.62,-4.53 44.84,-11.35 60.59,-20.44 28.42,-16.02 49.75,-36.29 63.94,-60.75 13.75,-23.71 20.64,-49.72 20.64,-77.98 0,-12.91 -2.08,-26.31 -6.23,-40.15 -4.48,-14.95 -11.25,-29.07 -20.29,-42.33 -9.04,-13.27 -19.79,-24.84 -32.2,-34.67 -12.43,-9.86 -26.52,-17.97 -42.19,-24.3l-0.03 -16.82c22.37,-16.93 39.16,-35.59 50.32,-55.95 10.73,-19.6 16.11,-39.02 16.11,-58.25 0,-20.25 -4.7,-40.07 -14.09,-59.43 -9.79,-20.17 -24.53,-38.14 -44.18,-53.87 -33.27,-26.61 -80.18,-39.93 -140.71,-39.93l-151.75 0zm145.39 554.03l-85.37 0 -0.84 -8.44 0 -237.05 0.84 -8.44 74.48 0c55.06,0 94.74,4.56 119.01,13.65 10.64,3.94 20.28,9.34 28.87,16.12 8.62,6.8 16.31,15.09 22.99,24.82 13.79,20.06 20.7,43.75 20.7,71.01 0,14.67 -1.75,27.76 -5.24,39.24 -3.13,10.32 -7.85,20.47 -14.09,30.38 -12.43,19.72 -28.07,33.86 -46.86,42.34 -12.09,5.44 -27.71,9.53 -46.81,12.25 -19.19,2.74 -41.77,4.12 -67.68,4.12zm-9.08 -291.55l-76.29 0 -0.84 -8.44 0 -207.99 0.84 -8.44 81.74 0c49.66,0 86.03,8.8 109.05,26.37 13.35,10.01 23.4,21.65 30.08,34.87 7.11,14.06 10.67,31.59 10.67,52.56 0,12.48 -1.37,23.46 -4.08,32.93 -2.39,8.32 -5.97,16.49 -10.7,24.43 -4.69,7.86 -9.99,14.79 -15.84,20.72 -5.86,5.94 -12.29,10.89 -19.22,14.8 -10.88,6.04 -25.14,10.6 -42.73,13.62 -17.66,3.04 -38.57,4.57 -62.68,4.57zm762.12 -262.48l-253.44 591.65 56.17 0 88.91 -205.04 0.19 -0.23 283.38 0 0.19 0.23 88 205.04 58.86 0 -254.32 -591.65 -67.94 0zm151.59 348.77l-237.05 0 -0.19 -16.65 119.89 -279.75 0.38 0 117.16 279.75 -0.19 16.65zm475.85 -348.77l0 591.65 311.67 0 0 -37.62 -251.65 0 -0.84 -8.44 0 -545.59 -59.18 0zm863.46 437.78l-63.4 0c2.01,19.97 6.79,38.84 14.34,56.58 9.28,21.8 22.61,41.1 39.96,57.85 17.38,16.78 37.17,29.38 59.33,37.77 22.12,8.37 46.68,12.57 73.65,12.57 51.46,0 95.35,-17.54 131.62,-52.61 18.12,-17.51 31.71,-36.77 40.76,-57.74 8.65,-20.03 12.98,-40.09 12.98,-60.14 0,-22.71 -4.86,-44.65 -14.56,-65.78 -10.09,-22 -25.29,-41.5 -45.53,-58.41 -10.31,-8.49 -24.92,-16.83 -43.79,-24.98 -18.93,-8.18 -42.19,-16.22 -69.69,-24.07 -23.01,-6.66 -42.1,-13.18 -57.22,-19.52 -15.18,-6.37 -26.42,-12.6 -33.66,-18.63 -9.7,-8.48 -17.02,-18.65 -21.91,-30.42 -5.28,-12.7 -7.92,-28.68 -7.92,-47.92 0,-19.52 2.76,-36.19 8.25,-49.96 5.09,-12.79 12.76,-24.37 22.94,-34.71 10.15,-10.3 21.51,-18.05 34,-23.2 12.53,-5.16 26.21,-7.75 41.01,-7.75 15.11,0 29.02,2.56 41.69,7.64 12.65,5.07 24.08,12.71 34.23,22.86 10.16,10.16 18.21,21.94 24.06,35.24 5.68,12.94 9.41,27.66 11.17,44.16l62.13 0c-0.97,-16.03 -4.72,-31.92 -11.24,-47.64l-0.01 0c-8.06,-19.44 -20.17,-37.02 -36.32,-52.71 -16.16,-15.71 -34.29,-27.52 -54.33,-35.38 -19.99,-7.84 -41.99,-11.78 -65.93,-11.78 -24.55,0 -47.03,3.9 -67.41,11.66 -20.42,7.79 -38.81,19.48 -55.13,35.04 -16.3,15.55 -28.53,33.03 -36.67,52.41 -7.73,18.41 -11.61,37.07 -11.61,55.93 0,17.72 3.36,35.15 10.04,52.23 7.09,18.08 17.73,34.24 31.88,48.39 10.86,10.86 25.94,20.79 45.16,29.71 19.23,8.93 42.62,16.89 70.13,23.84 22.13,5.76 41.07,12.06 56.79,18.85 15.77,6.82 28.37,14.18 37.72,22.02 13.94,11.82 24.44,25.06 31.44,39.68 7.4,15.46 11.11,34.11 11.11,55.93 0,38.37 -12.37,69.79 -37.09,94.2 -12.13,11.98 -25.48,20.96 -40.01,26.94 -14.57,5.99 -30.33,9 -47.26,9 -20.57,0 -38.98,-3.79 -55.22,-11.38 -16.21,-7.57 -30.25,-18.96 -42.08,-34.13 -7.89,-10.02 -14.23,-21.94 -18.96,-35.68 -4.59,-13.34 -7.75,-28.68 -9.44,-45.96zm636.97 -437.78l0 591.65 331.66 0 0 -37.62 -271.64 0 -0.84 -8.44 0 -226.15 0.84 -8.44 262.55 0 0 -37.62 -262.55 0 -0.84 -8.44 0 -218.89 0.84 -8.44 271.64 0 0 -37.61 -331.66 0zm670.29 0l0 591.65 59.18 0 0 -545.6 0.84 -8.44 106.26 0c26.55,0 49.8,1.91 69.72,5.71 19.87,3.78 36.32,9.48 49.32,17.03 44.71,25.72 67.09,67.29 67.09,124.67 0,31.4 -6.07,57.26 -18.18,77.56 -11.68,19.56 -29.21,35.58 -52.56,48.01 -13.6,7.26 -31.8,12.72 -54.53,16.35 -22.81,3.64 -50.08,5.48 -81.75,5.48l-11.88 0 193.58 259.23 63.45 0 -158.97 -210.29 0.11 -16.75c26.3,-1.5 50.3,-7 71.94,-16.45 21.63,-9.45 40.92,-22.89 57.85,-40.27 16.91,-17.36 29.6,-36.73 38.04,-58.05 8.04,-20.33 12.07,-41.05 12.07,-62.1 0,-35.71 -10.82,-69.27 -32.43,-100.65 -11.01,-15.99 -23.92,-29.84 -38.67,-41.49 -14.76,-11.66 -31.4,-21.15 -49.79,-28.38 -29.61,-11.47 -75.34,-17.22 -137.12,-17.22l-153.57 0zm667.42 0l243.72 591.65 59.78 0 245.48 -591.65 -59.12 0 -215.15 531.98 -0.4 0 -214.25 -531.98 -60.06 0zm848.46 0l0 591.65 59.18 0 0 -591.65 -59.18 0zm982.12 448.68l-58.31 0c-9.98,13.6 -20.13,25.78 -30.38,36.49 -10.32,10.78 -20.79,20.11 -31.36,27.96 -22.98,17.23 -47.23,30.19 -72.69,38.83 -25.48,8.64 -52.14,12.97 -79.96,12.97 -33.88,0 -65.77,-6.53 -95.64,-19.55 -29.81,-13.01 -57.61,-32.57 -83.37,-58.63 -25.77,-26.07 -45.13,-54.31 -58.01,-84.62 -13.3,-31.3 -19.95,-66.43 -19.95,-105.4 0,-39.53 6.62,-75.12 19.84,-106.72 12.82,-30.65 32.06,-59.05 57.67,-85.12 25.6,-26.06 53.37,-45.61 83.26,-58.62 29.93,-13.03 62.01,-19.56 96.2,-19.56 21.13,0 41.77,2.52 61.9,7.52 20.07,5 39.58,12.5 58.48,22.48 18.9,9.98 35.99,21.81 51.24,35.47 15.22,13.63 28.59,29.06 40.05,46.25l59.53 0c-6.19,-10.91 -13.74,-21.74 -22.67,-32.47 -13.43,-16.16 -30.02,-32.14 -49.69,-47.87 -28.77,-23.02 -59.74,-40.28 -92.83,-51.76 -33.08,-11.48 -68.44,-17.23 -106.01,-17.23 -44.23,0 -85.07,7.64 -122.48,22.9 -37.44,15.28 -71.54,38.21 -102.23,68.76 -60.94,60.64 -91.43,132.34 -91.43,215.06 0,39.48 7.55,77.34 22.62,113.53 15.47,37.14 38.72,71 69.71,101.53 62.02,61.11 137.23,91.67 225.63,91.67 29.12,0 57.21,-3.82 84.22,-11.44 27.05,-7.62 53.16,-19.1 78.31,-34.4 25.12,-15.28 47.52,-33.34 67.17,-54.11 15.39,-16.27 29.13,-34.26 41.18,-53.92zm327.58 -448.68l0 591.65 331.66 0 0 -37.62 -271.64 0 -0.84 -8.44 0 -226.15 0.84 -8.44 262.55 0 0 -37.62 -262.55 0 -0.84 -8.44 0 -218.89 0.84 -8.44 271.64 0 0 -37.61 -331.66 0zm674.55 437.78l-63.4 0c2.01,19.97 6.79,38.84 14.34,56.58 9.28,21.8 22.61,41.1 39.96,57.85 17.38,16.78 37.17,29.38 59.33,37.77 22.12,8.37 46.68,12.57 73.65,12.57 51.46,0 95.35,-17.54 131.62,-52.61 18.12,-17.51 31.71,-36.77 40.76,-57.74 8.65,-20.03 12.98,-40.09 12.98,-60.14 0,-22.71 -4.86,-44.65 -14.56,-65.78 -10.09,-22 -25.29,-41.5 -45.53,-58.41 -10.31,-8.49 -24.92,-16.83 -43.79,-24.98 -18.93,-8.18 -42.19,-16.22 -69.69,-24.07 -23.01,-6.66 -42.1,-13.18 -57.22,-19.52 -15.18,-6.37 -26.42,-12.6 -33.66,-18.63 -9.7,-8.48 -17.02,-18.65 -21.91,-30.42 -5.28,-12.7 -7.92,-28.68 -7.92,-47.92 0,-19.52 2.76,-36.19 8.25,-49.96 5.09,-12.79 12.76,-24.37 22.94,-34.71 10.15,-10.3 21.51,-18.05 34,-23.2 12.53,-5.16 26.21,-7.75 41.01,-7.75 15.11,0 29.02,2.56 41.69,7.64 12.65,5.07 24.08,12.71 34.23,22.86 10.16,10.16 18.21,21.94 24.06,35.24 5.68,12.94 9.41,27.66 11.17,44.16l62.13 0c-0.97,-16.03 -4.72,-31.92 -11.24,-47.64l-0.01 0c-8.06,-19.44 -20.17,-37.02 -36.32,-52.71 -16.16,-15.71 -34.29,-27.52 -54.33,-35.38 -19.99,-7.84 -41.99,-11.78 -65.93,-11.78 -24.55,0 -47.03,3.9 -67.41,11.66 -20.42,7.79 -38.81,19.48 -55.13,35.04 -16.3,15.55 -28.53,33.03 -36.67,52.41 -7.73,18.41 -11.61,37.07 -11.61,55.93 0,17.72 3.36,35.15 10.04,52.23 7.09,18.08 17.73,34.24 31.88,48.39 10.86,10.86 25.94,20.79 45.16,29.71 19.23,8.93 42.62,16.89 70.13,23.84 22.13,5.76 41.07,12.06 56.79,18.85 15.77,6.82 28.37,14.18 37.72,22.02 13.94,11.82 24.44,25.06 31.44,39.68 7.4,15.46 11.11,34.11 11.11,55.93 0,38.37 -12.37,69.79 -37.09,94.2 -12.13,11.98 -25.48,20.96 -40.01,26.94 -14.57,5.99 -30.33,9 -47.26,9 -20.57,0 -38.98,-3.79 -55.22,-11.38 -16.21,-7.57 -30.25,-18.96 -42.08,-34.13 -7.89,-10.02 -14.23,-21.94 -18.96,-35.68 -4.59,-13.34 -7.75,-28.68 -9.44,-45.96z"/>
    <path id="1" class="fil1" d="M7514.41 11587.29l413.26 0c-6.67,82.34 -40.88,151.37 -102.64,207.08 -61.76,55.71 -134.72,83.56 -218.89,83.56 -89.01,0 -165.76,-31.03 -230.24,-93.1 -64.49,-62.06 -96.73,-136.09 -96.73,-222.07 0,-87.19 31.64,-161.52 94.91,-222.97 63.28,-61.46 140.02,-92.19 230.24,-92.19 56.92,0 113.23,15.44 168.94,46.32 60.55,33.91 99.61,75.99 117.17,126.25l-69.03 0c-19.98,-35.12 -49.65,-63.58 -89.01,-85.38 -39.36,-21.8 -81.44,-32.7 -126.25,-32.7 -73.27,0 -135.94,25.58 -188.01,76.75 -52.07,51.17 -78.11,112.47 -78.11,183.92 0,72.06 26.34,133.52 79.02,184.38 52.68,50.86 115.95,76.29 189.83,76.29 56.31,0 107.93,-17.4 154.85,-52.22 46.93,-34.82 77.05,-77.96 90.38,-129.43l-339.69 0 0 -54.49zm736.59 279.74l0 -608.53 60.86 0 0 554.03 252.49 0 0 54.5 -313.35 0zm862.85 -619.43c88.4,0 164.24,30.88 227.52,92.64 63.27,61.76 94.91,135.94 94.91,222.52 0,86.59 -31.64,160.76 -94.91,222.53 -63.28,61.76 -138.81,92.64 -226.61,92.64 -89.62,0 -165.91,-31.03 -228.88,-93.1 -62.98,-62.06 -94.46,-137.3 -94.46,-225.7 0,-84.77 31.79,-157.89 95.36,-219.34 63.58,-61.46 139.27,-92.19 227.07,-92.19zm0 54.49c-70.84,0 -132.15,25.58 -183.92,76.75 -51.77,51.17 -77.66,111.87 -77.66,182.11 0,72.66 25.58,134.57 76.75,185.74 51.16,51.16 113.08,76.74 185.74,76.74 70.84,0 132,-25.58 183.47,-76.74 51.46,-51.17 77.2,-112.17 77.2,-183.02 0,-72.05 -25.58,-133.66 -76.75,-184.83 -51.16,-51.17 -112.78,-76.75 -184.83,-76.75zm652.12 564.94l0 -608.53 152.59 0c60.55,0 107.48,13.32 140.78,39.96 39.36,31.49 59.04,72.05 59.04,121.71 0,47.83 -22.4,88.7 -67.21,122.61 31.48,12.72 56.31,32.4 74.48,59.04 18.16,26.64 27.24,56.92 27.24,90.82 0,66 -28.46,115.05 -85.37,147.14 -31.49,18.17 -80.84,27.25 -148.05,27.25l-153.5 0zm60.86 -54.5l85.37 0c52.08,0 90.23,-5.45 114.45,-16.34 18.77,-8.48 34.36,-22.56 46.77,-42.24 12.41,-19.68 18.62,-40.11 18.62,-61.31 0,-22.4 -6.66,-43.29 -19.98,-62.67 -13.32,-19.37 -30.58,-33 -51.77,-40.87 -24.22,-9.08 -63.88,-13.62 -118.98,-13.62l-74.48 0 0 237.05zm0 -291.55l76.29 0c48.44,0 83.56,-6.05 105.36,-18.16 13.93,-7.87 25.58,-19.68 34.97,-35.42 9.38,-15.75 14.08,-32.1 14.08,-49.05 0,-32.7 -13.32,-59.04 -39.97,-79.02 -23.01,-17.56 -59.34,-26.34 -108.99,-26.34l-81.74 0 0 207.99zm577.65 346.05l260.67 -608.53 68.12 0 261.58 608.53 -66.3 0 -88.1 -205.27 -283.38 0 -89.01 205.27 -63.58 0zm175.3 -259.76l237.05 0 -117.16 -279.75 -119.89 279.75zm712.06 259.76l0 -608.53 60.86 0 0 554.03 252.49 0 0 54.5 -313.35 0zm799.26 -170.75l65.4 0c3.03,34.51 12.41,61.76 28.15,81.74 23.62,30.28 56.01,45.41 97.19,45.41 33.91,0 62.97,-11.96 87.19,-35.87 24.22,-23.92 36.33,-52.53 36.33,-85.83 0,-34.52 -13.92,-63.58 -41.78,-87.2 -18.77,-15.74 -50.26,-29.36 -94.46,-40.87 -55.1,-13.92 -93.55,-31.79 -115.35,-53.59 -28.45,-28.45 -42.68,-64.78 -42.68,-108.99 0,-46.62 16.34,-85.52 49.04,-116.71 32.7,-31.18 73.57,-46.77 122.62,-46.77 47.83,0 87.95,15.74 120.34,47.23 32.4,31.48 48.59,70.54 48.59,117.16l-63.58 0c-3.02,-32.7 -14.68,-59.19 -34.96,-79.47 -20.29,-20.29 -45.57,-30.43 -75.84,-30.43 -29.67,0 -54.65,10.3 -74.93,30.88 -20.29,20.59 -30.43,46.02 -30.43,76.3 0,29.67 9.69,52.98 29.06,69.93 14.54,12.11 44.81,24.83 90.83,38.15 55.1,15.74 92.94,32.09 113.53,49.05 40.57,33.9 60.86,78.11 60.86,132.6 0,49.05 -18.17,91.13 -54.5,126.25 -36.33,35.12 -80.23,52.68 -131.7,52.68 -53.89,0 -98.24,-16.8 -133.06,-50.41 -34.81,-33.6 -53.43,-77.35 -55.86,-131.24zm701.17 170.75l0 -608.53 333.34 0 0 54.49 -272.48 0 0 218.89 263.39 0 0 54.5 -263.39 0 0 226.15 272.48 0 0 54.5 -333.34 0zm670.29 0l0 -608.53 154.41 0c61.76,0 107.48,5.75 137.15,17.25 36.93,14.53 66.45,37.85 88.55,69.94 22.1,32.09 33.15,68.42 33.15,108.99 0,50.86 -16.95,93.7 -50.86,128.52 -33.91,34.82 -77.2,53.74 -129.88,56.76l171.66 227.07 -76.29 0 -206.18 -276.11 24.52 0c63.58,0 109,-7.27 136.24,-21.8 46.63,-24.83 69.94,-63.88 69.94,-117.16 0,-52.08 -22.1,-90.83 -66.3,-116.26 -26.04,-15.14 -65.7,-22.71 -118.99,-22.71l-106.26 0 0 554.04 -60.86 0zm911.89 0l-250.68 -608.53 67.21 0 214.35 532.24 215.26 -532.24 66.3 0 -252.49 608.53 -59.95 0zm603.99 0l0 -608.53 60.86 0 0 608.53 -60.86 0zm924.61 -159.85l68.12 0c-28.46,52.68 -67.82,94.3 -118.07,124.88 -50.26,30.58 -104.45,45.87 -162.58,45.87 -88.41,0 -163.64,-30.58 -225.71,-91.74 -62.06,-61.15 -93.09,-135.63 -93.09,-223.43 0,-87.8 30.73,-162.27 92.19,-223.43 61.45,-61.16 136.39,-91.73 224.79,-91.73 75.08,0 141.39,23.01 198.91,69.02 39.36,31.49 66.3,63.89 80.83,97.19l-68.12 0c-23,-34.52 -53.43,-61.76 -91.28,-81.75 -37.84,-19.98 -77.95,-29.97 -120.34,-29.97 -68.42,0 -128.22,26.04 -179.38,78.11 -51.17,52.08 -76.75,113.23 -76.75,183.47 0,69.03 25.73,129.58 77.2,181.65 51.47,52.08 111.11,78.11 178.93,78.11 55.71,0 106.57,-17.25 152.59,-51.77 21.19,-15.74 41.78,-37.24 61.76,-64.48zm385.09 159.85l0 -608.53 333.34 0 0 54.49 -272.48 0 0 218.89 263.39 0 0 54.5 -263.39 0 0 226.15 272.48 0 0 54.5 -333.34 0zm610.35 -170.75l65.4 0c3.03,34.51 12.41,61.76 28.15,81.74 23.62,30.28 56.01,45.41 97.19,45.41 33.91,0 62.97,-11.96 87.19,-35.87 24.22,-23.92 36.33,-52.53 36.33,-85.83 0,-34.52 -13.92,-63.58 -41.78,-87.2 -18.77,-15.74 -50.26,-29.36 -94.46,-40.87 -55.1,-13.92 -93.55,-31.79 -115.35,-53.59 -28.45,-28.45 -42.68,-64.78 -42.68,-108.99 0,-46.62 16.34,-85.52 49.04,-116.71 32.7,-31.18 73.57,-46.77 122.62,-46.77 47.83,0 87.95,15.74 120.34,47.23 32.4,31.48 48.59,70.54 48.59,117.16l-63.58 0c-3.02,-32.7 -14.68,-59.19 -34.96,-79.47 -20.29,-20.29 -45.57,-30.43 -75.84,-30.43 -29.67,0 -54.65,10.3 -74.93,30.88 -20.29,20.59 -30.43,46.02 -30.43,76.3 0,29.67 9.69,52.98 29.06,69.93 14.54,12.11 44.81,24.83 90.83,38.15 55.1,15.74 92.94,32.09 113.53,49.05 40.57,33.9 60.86,78.11 60.86,132.6 0,49.05 -18.17,91.13 -54.5,126.25 -36.33,35.12 -80.23,52.68 -131.7,52.68 -53.89,0 -98.24,-16.8 -133.06,-50.41 -34.81,-33.6 -53.43,-77.35 -55.86,-131.24z"/>
   </g>
   <path class="fil2" d="M3877.41 9198.84l2687.82 0 -933.01 2611.32 -822.16 0 -932.65 -2611.32zm804.27 1781.18l1053.54 0 -81.1 226.98 -891.37 0 -81.07 -226.98zm1452.53 -1091.05l79.25 -226.97 -2000.85 0 0 11.52 79.41 215.45 1842.19 0zm-1687.64 432.04l1527.55 0 -81.09 226.98 -1365.39 0 -81.07 -226.98zm122.58 1489.15l-842.97 0 0 -2361.25 842.97 2361.25zm2147.36 -2360.99l0 2360.99 -842.99 0 842.99 -2360.99z"/>
  </g>
 </g>
</svg>
