<svg width="69" height="69" viewBox="0 0 69 69" fill="none" xmlns="http://www.w3.org/2000/svg">
<circle cx="34.5" cy="34.5" r="33" stroke="#FFF" stroke-width="3"/>
<path d="M21.7442 39.4264L25.5798 28.1872H27.516L22.5371 41.8128H20.9697L16 28.1872H17.927L21.7442 39.4264ZM39.1059 40.0254C38.651 40.6867 38.0148 41.1827 37.1973 41.5133C36.3859 41.8377 35.4394 42 34.3575 42C33.2633 42 32.2922 41.7411 31.4439 41.2232C30.5956 40.6992 29.9379 39.9568 29.4707 38.996C29.0098 38.0352 28.7731 36.9216 28.7608 35.6551V34.4666C28.7608 32.414 29.231 30.8231 30.1715 29.6938C31.1181 28.5646 32.4458 28 34.1546 28C35.5561 28 36.6841 28.365 37.5384 29.0949C38.3929 29.8186 38.9153 30.848 39.1059 32.1832H37.3356C37.0037 30.3801 35.9464 29.4786 34.1639 29.4786C32.9775 29.4786 32.077 29.9029 31.4624 30.7513C30.8538 31.5936 30.5464 32.8164 30.5403 34.4198V35.5334C30.5403 37.0619 30.8845 38.2785 31.573 39.1831C32.2614 40.0815 33.1927 40.5307 34.3667 40.5307C35.0305 40.5307 35.6114 40.4559 36.1093 40.3061C36.6072 40.1564 37.0191 39.9037 37.3448 39.5481V36.4879H34.2376V35.0281H39.1059V40.0254ZM46.0211 35.7393C44.5028 35.2963 43.3964 34.7536 42.7018 34.111C42.0133 33.4621 41.6691 32.6635 41.6691 31.7152C41.6691 30.6422 42.0902 29.7562 42.9323 29.0575C43.7805 28.3525 44.8809 28 46.2331 28C47.1552 28 47.9758 28.1809 48.6949 28.5428C49.4203 28.9046 49.9796 29.4037 50.373 30.0401C50.7725 30.6765 50.9723 31.3721 50.9723 32.127H49.1928C49.1928 31.3035 48.9347 30.6578 48.4183 30.1898C47.902 29.7157 47.1736 29.4786 46.2331 29.4786C45.3603 29.4786 44.678 29.6751 44.1862 30.0682C43.7007 30.455 43.4579 30.9946 43.4579 31.6872C43.4579 32.2424 43.6883 32.7135 44.1494 33.1003C44.6165 33.4808 45.4064 33.8302 46.519 34.1484C47.6377 34.4666 48.5105 34.8191 49.1375 35.2059C49.7706 35.5864 50.2378 36.0325 50.539 36.5441C50.8463 37.0557 51 37.6578 51 38.3503C51 39.4545 50.5758 40.3404 49.7276 41.008C48.8794 41.6693 47.7453 42 46.3253 42C45.4033 42 44.5428 41.8222 43.7436 41.4666C42.9446 41.1047 42.3269 40.6118 41.8904 39.9879C41.4601 39.3641 41.245 38.656 41.245 37.8636H43.0245C43.0245 38.6871 43.3226 39.3391 43.9189 39.8195C44.5212 40.2937 45.3234 40.5307 46.3253 40.5307C47.2597 40.5307 47.9758 40.3373 48.4737 39.9505C48.9716 39.5637 49.2205 39.0365 49.2205 38.369C49.2205 37.7014 48.99 37.1867 48.529 36.8248C48.0679 36.4568 47.232 36.0949 46.0211 35.7393Z" fill="#FFF"/>
</svg>
